<?xml version="1.0" encoding="utf-8"?>
<svg version="1.1" id="CCM" xmlns="http://www.w3.org/2000/svg" xmlns:xlink="http://www.w3.org/1999/xlink" x="0px" y="0px"
	 width="205px" height="50px" viewBox="0 0 205 50" enable-background="new 0 0 205 50" xml:space="preserve">
<g id="logo-group">
	<path fill="#FFFFFF" d="M10.7,18.6c-1.1,0-2,0.5-2.6,1.4s-0.9,2.1-0.9,3.7c0,3.3,1.3,4.9,3.8,4.9c0.8,0,1.5-0.1,2.2-0.3
		s1.4-0.5,2.1-0.8v3.9c-1.4,0.6-3,0.9-4.9,0.9c-2.6,0-4.6-0.8-5.9-2.3s-2.1-3.7-2.1-6.5c0-1.8,0.3-3.3,1-4.7s1.6-2.4,2.9-3.1
		s2.7-1.1,4.4-1.1c1.9,0,3.6,0.4,5.3,1.2l-1.4,3.6c-0.6-0.3-1.3-0.5-1.9-0.8S11.5,18.6,10.7,18.6z"/>
	<path fill="#FFFFFF" d="M29.3,25.5c0,2.2-0.6,3.9-1.8,5.1s-2.8,1.8-4.9,1.8c-2,0-3.6-0.6-4.8-1.9s-1.8-2.9-1.8-5
		c0-2.2,0.6-3.8,1.8-5s2.8-1.8,4.9-1.8c1.3,0,2.5,0.3,3.5,0.8s1.8,1.3,2.3,2.4S29.3,24.1,29.3,25.5z M20.7,25.5c0,1.1,0.2,2,0.5,2.6
		s0.8,0.9,1.5,0.9c0.7,0,1.2-0.3,1.5-0.9s0.4-1.5,0.4-2.6c0-1.1-0.1-2-0.4-2.6s-0.8-0.9-1.5-0.9c-0.7,0-1.2,0.3-1.5,0.9
		S20.7,24.4,20.7,25.5z"/>
	<path fill="#FFFFFF" d="M34.2,32.4c-0.9,0-1.8-0.3-2.5-0.8s-1.3-1.3-1.6-2.4s-0.6-2.3-0.6-3.7c0-2.2,0.4-3.8,1.3-5.1
		s2.1-1.8,3.6-1.8c0.7,0,1.4,0.1,2,0.4s1.1,0.8,1.5,1.5h0.1c-0.1-1-0.2-2.1-0.2-3.1V14h4.6v18.2h-3.5l-1-1.7h-0.2
		C36.9,31.8,35.7,32.4,34.2,32.4z M36.1,28.8c0.7,0,1.3-0.2,1.6-0.7s0.5-1.2,0.5-2.1v-0.4c0-1.2-0.2-2-0.5-2.5s-0.9-0.7-1.6-0.7
		c-0.6,0-1.1,0.3-1.4,0.8s-0.5,1.4-0.5,2.4c0,1,0.2,1.8,0.5,2.4S35.4,28.8,36.1,28.8z"/>
	<path fill="#FFFFFF" d="M50.1,32.4c-2.2,0-3.9-0.6-5.2-1.8s-1.8-2.8-1.8-5c0-2.2,0.6-4,1.7-5.2s2.8-1.8,4.9-1.8
		c2,0,3.5,0.5,4.6,1.6s1.6,2.5,1.6,4.5v2h-8.2c0,0.7,0.3,1.3,0.8,1.7s1.2,0.6,2.1,0.6c0.8,0,1.5-0.1,2.2-0.2s1.4-0.4,2.2-0.8v3.3
		c-0.7,0.4-1.5,0.6-2.2,0.8S51.1,32.4,50.1,32.4z M49.8,21.8c-0.5,0-1,0.2-1.4,0.5s-0.6,0.9-0.6,1.6h3.9c0-0.6-0.2-1.2-0.5-1.5
		S50.4,21.8,49.8,21.8z"/>
	<path fill="#FFFFFF" d="M62.7,32.4c-2.2,0-3.8-0.6-4.9-1.8s-1.7-2.9-1.7-5.1c0-2.2,0.6-3.9,1.8-5.1s2.9-1.8,5.2-1.8
		c1.5,0,3,0.3,4.3,1l-1.3,3.4c-0.6-0.2-1.1-0.4-1.5-0.6s-1-0.2-1.5-0.2c-0.7,0-1.3,0.3-1.7,0.9s-0.6,1.4-0.6,2.4
		c0,2.1,0.8,3.2,2.4,3.2c1.3,0,2.6-0.4,3.9-1.2v3.6C65.8,32,64.4,32.4,62.7,32.4z"/>
	<path fill="#FFFFFF" d="M80.1,18.6c-1.1,0-2,0.5-2.6,1.4s-0.9,2.1-0.9,3.7c0,3.3,1.3,4.9,3.8,4.9c0.8,0,1.5-0.1,2.2-0.3
		s1.4-0.5,2.1-0.8v3.9c-1.4,0.6-3,0.9-4.9,0.9c-2.6,0-4.6-0.8-5.9-2.3s-2.1-3.7-2.1-6.5c0-1.8,0.3-3.3,1-4.7s1.6-2.4,2.9-3.1
		s2.7-1.1,4.4-1.1c1.9,0,3.6,0.4,5.3,1.2L84,19.7c-0.6-0.3-1.3-0.5-1.9-0.8S80.8,18.6,80.1,18.6z"/>
	<path fill="#FFFFFF" d="M94.6,32.2l-0.9-1.8h-0.1c-0.6,0.8-1.2,1.3-1.9,1.6s-1.5,0.4-2.5,0.4c-1.3,0-2.2-0.4-3-1.1
		s-1.1-1.8-1.1-3.2c0-1.4,0.5-2.5,1.5-3.2s2.4-1.1,4.3-1.2l2.2-0.1v-0.2c0-1.1-0.5-1.6-1.6-1.6c-1,0-2.2,0.3-3.7,1l-1.3-3
		c1.5-0.8,3.5-1.2,5.9-1.2c1.7,0,3,0.4,4,1.3s1.4,2,1.4,3.5v8.7H94.6z M91.2,29.2c0.6,0,1-0.2,1.4-0.5s0.6-0.8,0.6-1.4v-1l-1.1,0
		c-1.5,0.1-2.3,0.6-2.3,1.7C89.9,28.8,90.3,29.2,91.2,29.2z"/>
	<path fill="#FFFFFF" d="M103.7,32.2h-4.6V14h4.6V32.2z"/>
	<path fill="#FFFFFF" d="M109.6,32.2H105V14h4.6V32.2z"/>
	<path fill="#FFFFFF" d="M123.1,32.2l-3.5-12.3h-0.1c0.2,2.1,0.2,3.7,0.2,4.9v7.4h-4.1V15.1h6.2l3.6,12.2h0.1l3.5-12.2h6.2v17.1
		h-4.3v-7.5c0-0.4,0-0.8,0-1.3s0.1-1.6,0.2-3.5H131l-3.5,12.3H123.1z"/>
	<path fill="#FFFFFF" d="M149.4,25.5c0,2.2-0.6,3.9-1.8,5.1s-2.8,1.8-4.9,1.8c-2,0-3.6-0.6-4.8-1.9s-1.8-2.9-1.8-5
		c0-2.2,0.6-3.8,1.8-5s2.8-1.8,4.9-1.8c1.3,0,2.5,0.3,3.5,0.8s1.8,1.3,2.3,2.4S149.4,24.1,149.4,25.5z M140.8,25.5
		c0,1.1,0.2,2,0.5,2.6s0.8,0.9,1.5,0.9c0.7,0,1.2-0.3,1.5-0.9s0.4-1.5,0.4-2.6c0-1.1-0.1-2-0.4-2.6s-0.8-0.9-1.5-0.9
		c-0.7,0-1.2,0.3-1.5,0.9S140.8,24.4,140.8,25.5z"/>
	<path fill="#FFFFFF" d="M158.6,32.2V25c0-0.9-0.1-1.5-0.4-2s-0.7-0.7-1.2-0.7c-0.8,0-1.3,0.3-1.7,0.9s-0.5,1.7-0.5,3.2v5.8h-4.6
		V18.9h3.5l0.6,1.6h0.3c0.4-0.6,0.9-1.1,1.6-1.4s1.5-0.5,2.4-0.5c1.5,0,2.6,0.4,3.4,1.3s1.2,2.1,1.2,3.6v8.6H158.6z"/>
	<path fill="#FFFFFF" d="M164.4,15.6c0-0.7,0.2-1.2,0.6-1.5s1-0.5,1.9-0.5s1.5,0.2,1.9,0.5s0.6,0.9,0.6,1.5c0,1.3-0.8,2-2.4,2
		C165.2,17.6,164.4,17,164.4,15.6z M169.1,32.2h-4.6V18.9h4.6V32.2z"/>
	<path fill="#FFFFFF" d="M176.9,28.8c0.6,0,1.4-0.2,2.2-0.5v3.3c-0.6,0.3-1.2,0.5-1.8,0.6s-1.2,0.2-2,0.2c-1.5,0-2.6-0.4-3.3-1.1
		s-1-1.9-1-3.5v-5.5h-2.1v-1.5l2.6-1.8l1.2-2.8h3v2.7h3.3v3.4h-3.3v5.2C175.7,28.4,176.1,28.8,176.9,28.8z"/>
	<path fill="#FFFFFF" d="M192.3,25.5c0,2.2-0.6,3.9-1.8,5.1s-2.8,1.8-4.9,1.8c-2,0-3.6-0.6-4.8-1.9s-1.8-2.9-1.8-5
		c0-2.2,0.6-3.8,1.8-5s2.8-1.8,4.9-1.8c1.3,0,2.5,0.3,3.5,0.8s1.8,1.3,2.3,2.4S192.3,24.1,192.3,25.5z M183.7,25.5
		c0,1.1,0.2,2,0.5,2.6s0.8,0.9,1.5,0.9c0.7,0,1.2-0.3,1.5-0.9s0.4-1.5,0.4-2.6c0-1.1-0.1-2-0.4-2.6s-0.8-0.9-1.5-0.9
		c-0.7,0-1.2,0.3-1.5,0.9S183.7,24.4,183.7,25.5z"/>
	<path fill="#FFFFFF" d="M201.1,18.7c0.4,0,0.8,0,1.1,0.1l0.3,0l-0.4,4.3c-0.4-0.1-0.9-0.1-1.6-0.1c-1,0-1.7,0.2-2.2,0.7
		s-0.7,1.1-0.7,2v6.5h-4.6V18.9h3.4l0.7,2.1h0.2c0.4-0.7,0.9-1.3,1.6-1.7S200.4,18.7,201.1,18.7z"/>
</g>
</svg>
